name rise36.2859peak64.2979fall75.1499.mot
datacolumns 19
datarows 20
range 23.20990800000000 23.24157700000000
endheader
time	ground_force1_vx	ground_force1_vy	ground_force1_vz	ground_force1_px	ground_force1_py	ground_force1_pz	ground_force2_vx	ground_force2_vy	ground_force2_vz	ground_force2_px	ground_force2_py	ground_force2_pz	ground_torque1_x	ground_torque1_y	ground_torque1_z	ground_torque2_x	ground_torque2_y	ground_torque2_z	
23.20990800000000	-45.97113100000000	802.41511100000002	70.70529300000000	0.15260300000000	0.00000000000000	0.14904400000000	-13.99697500000000	51.59780900000000	12.54557300000000	0.37800200000000	0.00000000000000	-0.07069100000000	0.00000000000000	34.47205000000000	0.00000000000000	0.00000000000000	8.27264200000000	0.00000000000000	
23.21157500000000	-45.93294500000000	800.35597900000005	70.50424700000001	0.15221800000000	0.00000000000000	0.14887400000000	-14.91548200000000	57.69386500000000	13.62592300000000	0.38173900000000	0.00000000000000	-0.07120300000000	0.00000000000000	34.29508300000000	0.00000000000000	0.00000000000000	9.08513200000000	0.00000000000000	
23.21324100000000	-45.90133200000000	798.17144699999994	70.27863600000001	0.15185200000000	0.00000000000000	0.14869900000000	-15.61638400000000	63.59827600000000	14.56388700000000	0.38531200000000	0.00000000000000	-0.07169200000000	0.00000000000000	34.11537800000000	0.00000000000000	0.00000000000000	9.82000200000000	0.00000000000000	
23.21491600000000	-45.87739800000000	795.86083199999996	70.02814499999999	0.15150400000000	0.00000000000000	0.14852100000000	-16.09337100000000	69.27444400000000	15.35056000000000	0.38872900000000	0.00000000000000	-0.07216100000000	0.00000000000000	33.93320500000000	0.00000000000000	0.00000000000000	10.46916700000000	0.00000000000000	
23.21658000000000	-45.86222500000000	793.42353900000001	69.75249599999999	0.15117300000000	0.00000000000000	0.14833800000000	-16.35070300000000	74.71153300000000	15.98514700000000	0.39199900000000	0.00000000000000	-0.07261400000000	0.00000000000000	33.74882500000000	0.00000000000000	0.00000000000000	11.02970200000000	0.00000000000000	
23.21824700000000	-45.85686900000000	790.85905900000000	69.45144500000001	0.15086000000000	0.00000000000000	0.14815000000000	-16.40149500000000	79.92160000000000	16.47381400000000	0.39512700000000	0.00000000000000	-0.07305200000000	0.00000000000000	33.56249500000000	0.00000000000000	0.00000000000000	11.50325100000000	0.00000000000000	
23.21991400000000	-45.86235000000000	788.16696300000001	69.12478800000000	0.15056200000000	0.00000000000000	0.14795900000000	-16.26556300000000	84.93533300000000	16.82816600000000	0.39811900000000	0.00000000000000	-0.07347700000000	0.00000000000000	33.37445700000000	0.00000000000000	0.00000000000000	11.89517400000000	0.00000000000000	
23.22157500000000	-45.87964900000000	785.34690300000000	68.77235899999999	0.15028100000000	0.00000000000000	0.14776300000000	-15.96709400000000	89.79699599999999	17.06354000000000	0.40098000000000	0.00000000000000	-0.07389200000000	0.00000000000000	33.18494800000000	0.00000000000000	0.00000000000000	12.21352100000000	0.00000000000000	
23.22324500000000	-45.90970100000000	782.39860499999998	68.39402900000000	0.15001400000000	0.00000000000000	0.14756200000000	-15.53235100000000	94.55912700000000	17.19728800000000	0.40371500000000	0.00000000000000	-0.07429800000000	0.00000000000000	32.99418900000000	0.00000000000000	0.00000000000000	12.46796100000000	0.00000000000000	
23.22490700000000	-45.95339200000000	779.32186600000000	67.98971200000000	0.14976000000000	0.00000000000000	0.14735800000000	-14.98760300000000	99.27747900000000	17.24719500000000	0.40632600000000	0.00000000000000	-0.07469600000000	0.00000000000000	32.80239100000000	0.00000000000000	0.00000000000000	12.66876200000000	0.00000000000000	
23.22657500000000	-46.01155000000000	776.11654899999996	67.55936199999999	0.14952000000000	0.00000000000000	0.14714800000000	-14.35739700000000	104.00654299999999	17.23012200000000	0.40881700000000	0.00000000000000	-0.07508800000000	0.00000000000000	32.60974800000000	0.00000000000000	0.00000000000000	12.82589500000000	0.00000000000000	
23.22824700000000	-46.08494000000000	772.78258100000005	67.10297300000001	0.14929100000000	0.00000000000000	0.14693500000000	-13.66326100000000	108.79592800000000	17.16096300000000	0.41119200000000	0.00000000000000	-0.07547400000000	0.00000000000000	32.41644200000000	0.00000000000000	0.00000000000000	12.94831000000000	0.00000000000000	
23.22991100000000	-46.17426200000000	769.31994599999996	66.62058000000000	0.14907300000000	0.00000000000000	0.14671700000000	-12.92284900000000	113.68770600000001	17.05192600000000	0.41345200000000	0.00000000000000	-0.07585500000000	0.00000000000000	32.22263900000000	0.00000000000000	0.00000000000000	13.04341200000000	0.00000000000000	
23.23158100000000	-46.28014100000000	765.72868200000005	66.11226100000000	0.14886500000000	0.00000000000000	0.14649400000000	-12.14952400000000	118.71476900000000	16.91213600000000	0.41560100000000	0.00000000000000	-0.07623100000000	0.00000000000000	32.02848900000000	0.00000000000000	0.00000000000000	13.11675700000000	0.00000000000000	
23.23324800000000	-46.40312500000000	762.00887699999998	65.57813500000000	0.14866600000000	0.00000000000000	0.14626800000000	-11.35233400000000	123.90013399999999	16.74754600000000	0.41764100000000	0.00000000000000	-0.07660500000000	0.00000000000000	31.83412300000000	0.00000000000000	0.00000000000000	13.17192900000000	0.00000000000000	
23.23491200000000	-46.54367700000000	758.16066300000000	65.01836200000000	0.14847300000000	0.00000000000000	0.14603700000000	-10.53630100000000	129.25707299999999	16.56109600000000	0.41957400000000	0.00000000000000	-0.07697500000000	0.00000000000000	31.63965600000000	0.00000000000000	0.00000000000000	13.21060000000000	0.00000000000000	
23.23658300000000	-46.70217500000000	754.18421100000000	64.43314500000000	0.14828700000000	0.00000000000000	0.14580100000000	-9.70295800000000	134.78992000000000	16.35306400000000	0.42140200000000	0.00000000000000	-0.07734200000000	0.00000000000000	31.44518600000000	0.00000000000000	0.00000000000000	13.23271800000000	0.00000000000000	
23.23824900000000	-46.87890300000000	750.07972700000005	63.82272700000000	0.14810600000000	0.00000000000000	0.14556100000000	-8.85103900000000	140.49535000000000	16.12155300000000	0.42312800000000	0.00000000000000	-0.07770700000000	0.00000000000000	31.25078900000000	0.00000000000000	0.00000000000000	13.23680200000000	0.00000000000000	
23.23991500000000	-47.07404900000000	745.84745199999998	63.18739400000000	0.14792800000000	0.00000000000000	0.14531700000000	-7.97724600000000	146.36396800000000	15.86305100000000	0.42475200000000	0.00000000000000	-0.07807000000000	0.00000000000000	31.05652500000000	0.00000000000000	0.00000000000000	13.22028800000000	0.00000000000000	
23.24157700000000	-47.28770200000000	741.48764800000004	62.52747100000000	0.14775300000000	0.00000000000000	0.14506900000000	-7.07702000000000	152.38201699999999	15.57300400000000	0.42627700000000	0.00000000000000	-0.07843100000000	0.00000000000000	30.86243300000000	0.00000000000000	0.00000000000000	13.17989500000000	0.00000000000000	
